# xmcd
#
# Track frame offsets: 
#        150
#        21205
#        38282
#        58215
#        74751
#        90423
#        106091
#        123216
#        139584
#        155367
#        172411
#        189476
#        201707
#
# Disc length: 2927 seconds
#
# Revision: 0
# Processed by: cddbd v1.5.2PL0 Copyright (c) Steve Scherf et al.
# Submitted via: ExactAudioCopyFreeDBPlugin 1.0
#
DISCID=b60b6d0d
DTITLE=Susan Harrison - Thing Or Three About Love
DYEAR=2010
DGENRE=Folk/Rock
TTITLE0=What A Little Dancing Will Do
TTITLE1=Lucky Enough To Be Happy
TTITLE2=Possibilities
TTITLE3=Leave A Light On
TTITLE4=Lonely Miss Understood
TTITLE5=For You
TTITLE6=If I Were a Shoe
TTITLE7=So They Say
TTITLE8=Beers Ago
TTITLE9=Maybeville
TTITLE10=Ten Cent Shoes
TTITLE11=Thing Or Three About Love
TTITLE12=Hug My Hand - Hug My Heart
EXTD=
EXTT0=
EXTT1=
EXTT2=
EXTT3=
EXTT4=
EXTT5=
EXTT6=
EXTT7=
EXTT8=
EXTT9=
EXTT10=
EXTT11=
EXTT12=
PLAYORDER=
